<svg xmlns="http://www.w3.org/2000/svg" width="596.44" height="155.25" viewBox="0 0 596.44 155.25">
  <title>Logo Final</title>
  <g id="Layer_2" data-name="Layer 2">
    <g id="Layer_2-2" data-name="Layer 2">
      <g>
        <g>
          <path d="M189.31,79.54,205,107.46h14.74L203.27,80.28a14.51,14.51,0,0,0,9.59-5.1,15.69,15.69,0,0,0,3.72-10.53q0-8.49-5.43-12.72t-16.33-4.22H176.53v59.75h12.78Zm0-22.08h1.92c4.92,0,8.28.62,10.06,1.86S204,62.65,204,65.59s-.83,4.76-2.49,5.89-5.07,1.7-10.24,1.7h-1.92Z" style="fill: #fff"/>
          <path d="M236.21,101.87a32.94,32.94,0,0,0,9.61,5.33,31.9,31.9,0,0,0,22.8-.51,33.11,33.11,0,0,0,10.49-6.82,29.67,29.67,0,0,0,6.87-10,31.95,31.95,0,0,0,0-24.2,30,30,0,0,0-6.89-10.09,32.74,32.74,0,0,0-10.43-6.77,31.76,31.76,0,0,0-12.15-2.41,32.86,32.86,0,0,0-22.65,9.18,30,30,0,0,0-6.94,10.07,31,31,0,0,0-2.37,12.1,30.32,30.32,0,0,0,11.64,24.16Zm6.85-38.47a17.59,17.59,0,0,1,13.47-5.77,17.41,17.41,0,0,1,13.35,5.79,20.28,20.28,0,0,1,5.35,14.29A20.12,20.12,0,0,1,269.94,92a17.48,17.48,0,0,1-13.41,5.7A17.69,17.69,0,0,1,243,92q-5.26-5.64-5.26-14.3A20.28,20.28,0,0,1,243.06,63.4Z" style="fill: #fff"/>
          <path d="M308.45,107.46h12.78V80.2l20.24-32.49h-15L317.72,64a36.24,36.24,0,0,0-1.61,3.6,39,39,0,0,0-1.29,3.91c-.49-1.63-1-3.07-1.43-4.32a24,24,0,0,0-1.35-3.1l-8.85-16.37h-15L308.45,80.2Z" style="fill: #fff"/>
          <path d="M357.88,47.71l-22.73,59.75h13.71L353,94.77h23.14L381,107.46h14.53L372.5,47.71Zm-1.26,37,6.45-19.06c.16-.52.4-1.55.73-3.08s.67-3.28,1-5.21q.49,3,.94,5.1a28.49,28.49,0,0,0,.74,2.94l6.69,19.31Z" style="fill: #fff"/>
          <polygon points="414.62 96.61 414.62 47.71 401.84 47.71 401.84 107.46 435.03 107.46 435.03 96.61 414.62 96.61" style="fill: #FFF"/>
          <polygon points="490.52 47.63 475.74 47.63 455.82 74.69 455.82 47.63 443.05 47.63 443.05 107.38 455.82 107.38 455.82 76.12 475.9 107.38 491.29 107.38 469.13 74.85 490.52 47.63" style="fill: #FFF"/>
          <path d="M533.54,75.1a15.72,15.72,0,0,0,3.71-10.53q0-8.49-5.43-12.72T515.5,47.63H497.21v59.75H510V79.46l15.71,27.92h14.74L524,80.2A14.51,14.51,0,0,0,533.54,75.1Zm-11.39-3.7q-2.49,1.69-10.24,1.7H510V57.38h1.92c4.92,0,8.28.62,10.06,1.86s2.67,3.33,2.67,6.26S523.81,70.27,522.15,71.4Z" style="fill: #FFF"/>
          <path d="M578.11,46.2q-14.49,0-23.67,8.86t-9.19,22.49q0,13.67,9.17,22.55T577.87,109a36.52,36.52,0,0,0,9.4-1.18,34.2,34.2,0,0,0,8.56-3.59l.08-13.1a26.47,26.47,0,0,1-8.25,5.2A26.2,26.2,0,0,1,578,98q-9.1,0-14.37-5.54t-5.26-15q0-9.64,5.67-15.35t15.22-5.72A23.45,23.45,0,0,1,588,58.1a26.61,26.61,0,0,1,8,5.08l.45-12.82a42,42,0,0,0-8.94-3.14A42.62,42.62,0,0,0,578.11,46.2Z" style="fill: #FFF"/>
        </g>
        <g>
          <path d="M76.46,17.24V0h2.29V17.38a4,4,0,0,1,0,7.42V36.32l0,1.17H76.5l0-1.17V24.94a4,4,0,0,1,0-7.7Z" style="fill: #FFF"/>
          <path d="M79.08,104.84v50.4H76.16v-50.4a6,6,0,1,1,2.92,0Z" style="fill: #FFF"/>
          <path d="M155.22,77.65a77.62,77.62,0,0,1-73.28,77.48,3.32,3.32,0,0,0-1-4.48c13.17-40.25,30-55.26,30-55.26-15.47-33.69-7.17-45.1-6.74-45.62v-.05l-.76-3.4,9.2-32.7a20.68,20.68,0,0,0-9,3.83c-4.39,3.3-5.85,6.18-5.85,6.18a6.68,6.68,0,0,1,4.52,5.66V30a6.7,6.7,0,0,1-6.7,6.75,6.47,6.47,0,0,1-4.29-1.56A6.63,6.63,0,0,1,89,30.19l3.64-13.07L79.92,0a77.2,77.2,0,0,1,46.75,17.41c1,.8,1.89,1.65,2.84,2.5a77.36,77.36,0,0,1,24.72,45.34c.19,1.08.33,2.17.47,3.26A82.12,82.12,0,0,1,155.22,77.65Z" style="fill: #FFF"/>
          <path d="M104.23,49.7H51s9.15,11.14-6.75,45.68c0,0,16.84,15,30,55.25a3.34,3.34,0,0,0-1.51,2.78,3,3,0,0,0,.52,1.7A77.62,77.62,0,0,1,75.31,0L62.61,17.15l3.64,13.07a6.56,6.56,0,0,1-2.36,4.9,6.73,6.73,0,0,1-11-5.14v-.66a6.74,6.74,0,0,1,4.53-5.71s-1.47-2.88-5.86-6.18a21.3,21.3,0,0,0-9-3.82l9.2,32.7h51.71Z" style="fill: #FFF"/>
          <line x1="112.66" y1="13.62" x2="112.61" y2="13.58" style="fill: none"/>
          <line x1="103.47" y1="46.31" x2="103.43" y2="46.31" style="fill: none"/>
          <polyline points="104.13 49.7 104.18 49.7 104.23 49.7" style="fill: none"/>
        </g>
      </g>
    </g>
  </g>
</svg>
